<svg width="17" height="16" viewBox="0 0 17 16" fill="none" xmlns="http://www.w3.org/2000/svg">
<path d="M14.7617 2.26524C14.3999 1.90329 13.9704 1.61616 13.4976 1.42026C13.0248 1.22436 12.5181 1.12354 12.0063 1.12354C11.4945 1.12354 10.9878 1.22436 10.515 1.42026C10.0422 1.61616 9.61266 1.90329 9.25088 2.26524L8.50004 3.01608L7.74921 2.26524C7.01843 1.53446 6.02728 1.12391 4.99379 1.12391C3.96031 1.12391 2.96916 1.53446 2.23838 2.26524C1.50759 2.99603 1.09705 3.98718 1.09705 5.02066C1.09705 6.05414 1.50759 7.0453 2.23838 7.77608L2.98921 8.52691L8.50004 14.0377L14.0109 8.52691L14.7617 7.77608C15.1237 7.41429 15.4108 6.98474 15.6067 6.51195C15.8026 6.03917 15.9034 5.53242 15.9034 5.02066C15.9034 4.5089 15.8026 4.00215 15.6067 3.52937C15.4108 3.05658 15.1237 2.62703 14.7617 2.26524V2.26524Z" stroke="#EA0000" stroke-width="2" stroke-linecap="round" stroke-linejoin="round"/>
</svg>
