<svg width="12" height="16" viewBox="0 0 12 16" fill="none" xmlns="http://www.w3.org/2000/svg">
<path d="M11.7301 5.04069C11.6891 5.13161 11.6331 5.215 11.5645 5.28739L8.08451 8.77497C7.94079 8.89724 7.75623 8.96079 7.5677 8.9529C7.37917 8.94501 7.20056 8.86627 7.06756 8.73241C6.93456 8.59856 6.85697 8.41945 6.8503 8.23087C6.84362 8.04229 6.90835 7.85814 7.03154 7.71522L9.2262 5.53461L3.98188 5.51777C3.38579 5.51585 2.81335 5.75081 2.39049 6.17096C1.96764 6.59111 1.729 7.16202 1.72709 7.75812L1.70464 14.7481C1.704 14.9468 1.62446 15.1371 1.48351 15.2771C1.34256 15.4172 1.15174 15.4955 0.953047 15.4948C0.754349 15.4942 0.564044 15.4147 0.423995 15.2737C0.283946 15.1328 0.205625 14.9419 0.206263 14.7432L0.228808 7.72334C0.231999 6.72985 0.62972 5.77832 1.33448 5.07808C2.03923 4.37783 2.9933 3.98623 3.98679 3.98942L9.23111 4.00626L7.0505 1.8116C6.98051 1.74173 6.92504 1.65869 6.8873 1.56727C6.84955 1.47586 6.83029 1.37787 6.8306 1.27897C6.83092 1.18007 6.85082 1.0822 6.88915 0.991031C6.92748 0.899858 6.98348 0.817177 7.05392 0.747755C7.12415 0.678544 7.20735 0.623876 7.29875 0.586885C7.39014 0.549896 7.48795 0.531312 7.58654 0.532199C7.78308 0.533657 7.97118 0.612292 8.11028 0.751148L11.5679 4.23103C11.6386 4.30184 11.6943 4.38609 11.7319 4.4788C11.8042 4.65924 11.8036 4.86072 11.7301 5.04069Z" fill="#FDFDFD"/>
</svg>
