<svg width="20" height="20" viewBox="0 0 20 20" fill="none" xmlns="http://www.w3.org/2000/svg">
<path d="M6.33346 9.08325C6.15216 9.08325 5.97493 9.13701 5.82418 9.23774C5.67344 9.33846 5.55595 9.48163 5.48657 9.64913C5.41718 9.81662 5.39903 10.0009 5.4344 10.1788C5.46977 10.3566 5.55708 10.5199 5.68527 10.6481C5.81347 10.7763 5.97681 10.8636 6.15462 10.899C6.33244 10.9343 6.51675 10.9162 6.68425 10.8468C6.85175 10.7774 6.99491 10.6599 7.09564 10.5092C7.19636 10.3584 7.25012 10.1812 7.25012 9.99992C7.25012 9.7568 7.15354 9.52365 6.98164 9.35174C6.80973 9.17983 6.57657 9.08325 6.33346 9.08325ZM10.0001 9.08325C9.81882 9.08325 9.64159 9.13701 9.49085 9.23774C9.3401 9.33846 9.22261 9.48163 9.15323 9.64913C9.08385 9.81662 9.0657 10.0009 9.10107 10.1788C9.13644 10.3566 9.22374 10.5199 9.35194 10.6481C9.48014 10.7763 9.64347 10.8636 9.82129 10.899C9.99911 10.9343 10.1834 10.9162 10.3509 10.8468C10.5184 10.7774 10.6616 10.6599 10.7623 10.5092C10.863 10.3584 10.9168 10.1812 10.9168 9.99992C10.9168 9.7568 10.8202 9.52365 10.6483 9.35174C10.4764 9.17983 10.2432 9.08325 10.0001 9.08325ZM13.6668 9.08325C13.4855 9.08325 13.3083 9.13701 13.1575 9.23774C13.0068 9.33846 12.8893 9.48163 12.8199 9.64913C12.7505 9.81662 12.7324 10.0009 12.7677 10.1788C12.8031 10.3566 12.8904 10.5199 13.0186 10.6481C13.1468 10.7763 13.3101 10.8636 13.488 10.899C13.6658 10.9343 13.8501 10.9162 14.0176 10.8468C14.1851 10.7774 14.3282 10.6599 14.429 10.5092C14.5297 10.3584 14.5835 10.1812 14.5835 9.99992C14.5835 9.7568 14.4869 9.52365 14.315 9.35174C14.1431 9.17983 13.9099 9.08325 13.6668 9.08325ZM10.0001 0.833252C8.79634 0.833252 7.60434 1.07035 6.49219 1.53102C5.38004 1.99169 4.36951 2.6669 3.51831 3.51811C1.79923 5.23719 0.833455 7.56877 0.833455 9.99992C0.825441 12.1166 1.55835 14.1694 2.90512 15.8024L1.07179 17.6358C0.944594 17.7647 0.85843 17.9283 0.824171 18.1062C0.789911 18.284 0.80909 18.468 0.879288 18.6349C0.955424 18.7999 1.07885 18.9384 1.2339 19.0331C1.38895 19.1278 1.56862 19.1742 1.75012 19.1666H10.0001C12.4313 19.1666 14.7629 18.2008 16.4819 16.4817C18.201 14.7626 19.1668 12.4311 19.1668 9.99992C19.1668 7.56877 18.201 5.23719 16.4819 3.51811C14.7629 1.79902 12.4313 0.833252 10.0001 0.833252ZM10.0001 17.3333H3.95929L4.81179 16.4808C4.8984 16.3959 4.96731 16.2946 5.01451 16.1829C5.06172 16.0712 5.08628 15.9512 5.08679 15.8299C5.08334 15.5881 4.9845 15.3575 4.81179 15.1883C3.61149 13.9893 2.86403 12.4112 2.69675 10.723C2.52948 9.03471 2.95274 7.34067 3.89441 5.92948C4.83609 4.51829 6.23793 3.47725 7.86109 2.98373C9.48426 2.49021 11.2283 2.57474 12.7962 3.22292C14.364 3.87111 15.6586 5.04284 16.4594 6.53849C17.2601 8.03413 17.5176 9.76117 17.1878 11.4253C16.8581 13.0895 15.9615 14.5879 14.6509 15.6651C13.3402 16.7424 11.6967 17.3319 10.0001 17.3333Z" fill="#FDFDFD"/>
</svg>
