<svg width="31" height="23" viewBox="0 0 31 23" fill="none" xmlns="http://www.w3.org/2000/svg">
<path d="M10.5005 16.4554C10.7037 16.6259 10.9663 16.7086 11.2305 16.6855C11.4947 16.6624 11.7389 16.5353 11.9094 16.3321C12.0798 16.129 12.1626 15.8664 12.1395 15.6022C12.1164 15.338 11.9893 15.0938 11.7861 14.9233C10.7703 14.0709 10.1346 12.8499 10.0191 11.5288C9.90349 10.2078 10.3174 8.89497 11.1698 7.87913C11.3403 7.67596 11.4231 7.41339 11.4 7.14918C11.3769 6.88498 11.2497 6.64077 11.0466 6.47029C10.8434 6.29982 10.5808 6.21703 10.3166 6.24014C10.0524 6.26326 9.80821 6.39038 9.63773 6.59355C8.44438 8.01573 7.86487 9.8537 8.02668 11.7032C8.18848 13.5526 9.07835 15.262 10.5005 16.4554ZM5.35823 22.5837C5.56139 22.7542 5.82396 22.837 6.08817 22.8139C6.35238 22.7908 6.59658 22.6636 6.76706 22.4605C6.93754 22.2573 7.02032 21.9947 6.99721 21.7305C6.97409 21.4663 6.84697 21.2221 6.6438 21.0516C4.00262 18.8354 2.35001 15.6608 2.04951 12.2261C1.74901 8.7914 2.82525 5.37801 5.04146 2.73683C5.21194 2.53366 5.29473 2.27109 5.27161 2.00688C5.2485 1.74268 5.12137 1.49847 4.91821 1.32799C4.71504 1.15752 4.45247 1.07473 4.18826 1.09784C3.92406 1.12096 3.67985 1.24808 3.50937 1.45125C0.952206 4.49876 -0.289607 8.43729 0.0571197 12.4004C0.403847 16.3635 2.31071 20.0266 5.35823 22.5837ZM7.92938 19.5196C8.13254 19.69 8.39511 19.7728 8.65932 19.7497C8.92353 19.7266 9.16773 19.5995 9.33821 19.3963C9.50869 19.1931 9.59147 18.9306 9.56836 18.6664C9.54524 18.4021 9.41812 18.1579 9.21495 17.9875C7.38644 16.4532 6.24232 14.2553 6.03429 11.8775C5.82625 9.4996 6.57134 7.13649 8.10564 5.30798C8.27612 5.10481 8.35891 4.84224 8.33579 4.57803C8.31268 4.31383 8.18555 4.06962 7.98238 3.89914C7.77922 3.72867 7.51665 3.64588 7.25244 3.66899C6.98823 3.69211 6.74403 3.81923 6.57355 4.0224C4.6983 6.25725 3.78763 9.1455 4.0419 12.0518C4.29616 14.9581 5.69453 17.6443 7.92938 19.5196Z" fill="white"/>
<path d="M14.9212 8.7379C14.1293 8.80768 13.3975 9.18895 12.8864 9.79796C12.3754 10.407 12.127 11.1939 12.1958 11.9859C12.2656 12.7779 12.6469 13.5097 13.2559 14.0207C13.8649 14.5318 14.6518 14.7801 15.4439 14.7113C16.2154 14.6163 16.9198 14.2256 17.4089 13.6214C17.898 13.0172 18.1335 12.2467 18.0657 11.4724C17.998 10.698 17.6323 9.98017 17.0457 9.47009C16.4592 8.96001 15.6975 8.69751 14.9212 8.7379ZM15.2701 12.7249C15.0048 12.7481 14.7411 12.665 14.5371 12.4938C14.3331 12.3226 14.2055 12.0774 14.1823 11.8121C14.1591 11.5468 14.2422 11.2832 14.4134 11.0792C14.5845 10.8752 14.8298 10.7476 15.095 10.7244C15.2265 10.7123 15.359 10.7264 15.485 10.7659C15.611 10.8053 15.7279 10.8693 15.8291 10.9541C15.9302 11.039 16.0135 11.143 16.0742 11.2603C16.135 11.3775 16.1719 11.5056 16.1828 11.6371C16.1949 11.7686 16.1808 11.9011 16.1413 12.0271C16.1019 12.1531 16.0379 12.27 15.953 12.3711C15.8682 12.4723 15.7641 12.5556 15.6469 12.6163C15.5297 12.677 15.4016 12.7139 15.2701 12.7249ZM19.6821 6.36231C19.4789 6.19184 19.2163 6.10905 18.9521 6.13216C18.6879 6.15528 18.4437 6.2824 18.2732 6.48557C18.1028 6.68874 18.02 6.95131 18.0431 7.21551C18.0662 7.47972 18.1933 7.72392 18.3965 7.8944C19.4123 8.74679 20.048 9.96781 20.1635 11.2888C20.2791 12.6099 19.8652 13.9227 19.0128 14.9386C18.8423 15.1417 18.7595 15.4043 18.7826 15.6685C18.8057 15.9327 18.9329 16.1769 19.136 16.3474C19.3392 16.5179 19.6018 16.6007 19.866 16.5775C20.1302 16.5544 20.3744 16.4273 20.5449 16.2241C21.7382 14.802 22.3177 12.964 22.1559 11.1145C21.9941 9.26508 21.1042 7.55566 19.6821 6.36231ZM22.2532 3.29814C22.05 3.12766 21.7875 3.04487 21.5233 3.06799C21.2591 3.0911 21.0149 3.21822 20.8444 3.42139C20.6739 3.62456 20.5911 3.88713 20.6142 4.15134C20.6374 4.41554 20.7645 4.65975 20.9676 4.83022C22.7962 6.36453 23.9403 8.56236 24.1483 10.9402C24.3563 13.3181 23.6113 15.6812 22.077 17.5097C21.9065 17.7129 21.8237 17.9754 21.8468 18.2397C21.8699 18.5039 21.997 18.7481 22.2002 18.9185C22.4034 19.089 22.6659 19.1718 22.9302 19.1487C23.1944 19.1256 23.4386 18.9985 23.609 18.7953C25.4775 16.5565 26.388 13.6714 26.1433 10.7657C25.8798 7.86159 24.482 5.17845 22.2532 3.29814ZM30.1303 10.4169C29.7705 6.45662 27.864 2.79784 24.8244 0.233958C24.6212 0.0634801 24.3586 -0.0193071 24.0944 0.00380799C23.8302 0.0269231 23.586 0.154047 23.4155 0.357215C23.2451 0.560382 23.1623 0.822951 23.1854 1.08716C23.2085 1.35137 23.3356 1.59557 23.5388 1.76605C26.18 3.98226 27.8326 7.15691 28.1331 10.5916C28.4336 14.0263 27.3573 17.4397 25.1411 20.0809C24.9707 20.284 24.8879 20.5466 24.911 20.8108C24.9341 21.075 25.0612 21.3192 25.2644 21.4897C25.4676 21.6602 25.7301 21.743 25.9943 21.7198C26.2585 21.6967 26.5027 21.5696 26.6732 21.3664C29.2215 18.3137 30.4636 14.3794 30.1303 10.4169Z" fill="white"/>
</svg>
