<svg width="23" height="30" viewBox="0 0 23 30" fill="none" xmlns="http://www.w3.org/2000/svg">
<path d="M0 2C0 0.89543 0.895431 0 2 0C3.10457 0 4 0.895431 4 2V18H0V2Z" fill="#FB1607"/>
<path d="M13 1.5C13 0.671573 13.6716 0 14.5 0C15.3284 0 16 0.671573 16 1.5V19H13V1.5Z" fill="#1AC70B"/>
<path d="M18.1824 14.7298C18.7267 13.7745 19.9424 13.4413 20.8978 13.9856C21.8532 14.5299 22.1864 15.7457 21.6421 16.701L18.4596 22.2866L14.9999 20.3154L18.1824 14.7298Z" fill="#FF0000"/>
<rect x="5" y="10" width="3" height="10" rx="1.5" fill="#FFC700"/>
<path d="M2 19C2.32749 31.0061 12.3158 29.6721 16 22.7352" stroke="#FFC700" stroke-width="4"/>
<rect x="9" y="8" width="3" height="12" rx="1.5" fill="#00D7D7"/>
</svg>
