<svg width="23" height="23" viewBox="0 0 23 23" fill="none" xmlns="http://www.w3.org/2000/svg">
<path d="M21.985 8.74375L19.8588 8.035L20.86 6.0325C20.9615 5.8229 20.9955 5.58696 20.9572 5.35725C20.9189 5.12753 20.8102 4.91536 20.6463 4.75L18.25 2.35375C18.0838 2.18735 17.8696 2.07724 17.6375 2.0389C17.4054 2.00055 17.1672 2.03591 16.9563 2.14L14.9538 3.14125L14.245 1.015C14.1702 0.79337 14.0281 0.600583 13.8385 0.46347C13.649 0.326358 13.4214 0.251741 13.1875 0.250004H9.8125C9.57665 0.249395 9.34658 0.322925 9.1548 0.460201C8.96301 0.597477 8.81923 0.791555 8.74375 1.015L8.035 3.14125L6.0325 2.14C5.8229 2.03851 5.58696 2.00456 5.35725 2.04284C5.12753 2.08113 4.91536 2.18976 4.75 2.35375L2.35375 4.75C2.18735 4.91624 2.07724 5.13045 2.0389 5.36252C2.00055 5.59458 2.03591 5.83283 2.14 6.04375L3.14125 8.04625L1.015 8.755C0.79337 8.82986 0.600583 8.97194 0.46347 9.16147C0.326358 9.35101 0.251741 9.57858 0.250004 9.8125V13.1875C0.249395 13.4234 0.322925 13.6534 0.460201 13.8452C0.597477 14.037 0.791555 14.1808 1.015 14.2563L3.14125 14.965L2.14 16.9675C2.03851 17.1771 2.00456 17.413 2.04284 17.6428C2.08113 17.8725 2.18976 18.0847 2.35375 18.25L4.75 20.6463C4.91624 20.8127 5.13045 20.9228 5.36252 20.9611C5.59458 20.9995 5.83283 20.9641 6.04375 20.86L8.04625 19.8588L8.755 21.985C8.83048 22.2085 8.97426 22.4025 9.16605 22.5398C9.35783 22.6771 9.5879 22.7506 9.82375 22.75H13.1988C13.4346 22.7506 13.6647 22.6771 13.8565 22.5398C14.0482 22.4025 14.192 22.2085 14.2675 21.985L14.9763 19.8588L16.9788 20.86C17.187 20.9589 17.4207 20.9915 17.648 20.9533C17.8754 20.915 18.0855 20.8079 18.25 20.6463L20.6463 18.25C20.8127 18.0838 20.9228 17.8696 20.9611 17.6375C20.9995 17.4054 20.9641 17.1672 20.86 16.9563L19.8588 14.9538L21.985 14.245C22.2066 14.1702 22.3994 14.0281 22.5365 13.8385C22.6736 13.649 22.7483 13.4214 22.75 13.1875V9.8125C22.7506 9.57665 22.6771 9.34658 22.5398 9.1548C22.4025 8.96301 22.2085 8.81923 21.985 8.74375ZM20.5 12.3775L19.15 12.8275C18.8396 12.9282 18.5548 13.0952 18.3153 13.317C18.0759 13.5388 17.8876 13.81 17.7634 14.1118C17.6392 14.4136 17.5822 14.7388 17.5963 15.0649C17.6104 15.3909 17.6953 15.71 17.845 16L18.4863 17.2825L17.2488 18.52L16 17.845C15.7115 17.7013 15.3955 17.6212 15.0734 17.6102C14.7512 17.5992 14.4305 17.6576 14.1329 17.7813C13.8352 17.9051 13.5677 18.0913 13.3483 18.3274C13.1289 18.5636 12.9628 18.8441 12.8613 19.15L12.4113 20.5H10.6225L10.1725 19.15C10.0718 18.8396 9.90478 18.5548 9.68301 18.3153C9.46125 18.0759 9.19005 17.8876 8.88823 17.7634C8.5864 17.6392 8.26119 17.5822 7.93513 17.5963C7.60908 17.6104 7.28999 17.6953 7 17.845L5.7175 18.4863L4.48 17.2488L5.155 16C5.30473 15.71 5.38959 15.3909 5.40368 15.0649C5.41777 14.7388 5.36076 14.4136 5.23661 14.1118C5.11246 13.81 4.92413 13.5388 4.68469 13.317C4.44526 13.0952 4.16044 12.9282 3.85 12.8275L2.5 12.3775V10.6225L3.85 10.1725C4.16044 10.0718 4.44526 9.90478 4.68469 9.68301C4.92413 9.46125 5.11246 9.19005 5.23661 8.88823C5.36076 8.5864 5.41777 8.26119 5.40368 7.93513C5.38959 7.60908 5.30473 7.28999 5.155 7L4.51375 5.75125L5.75125 4.51375L7 5.155C7.28999 5.30473 7.60908 5.38959 7.93513 5.40368C8.26119 5.41777 8.5864 5.36076 8.88823 5.23661C9.19005 5.11246 9.46125 4.92413 9.68301 4.68469C9.90478 4.44526 10.0718 4.16044 10.1725 3.85L10.6225 2.5H12.3775L12.8275 3.85C12.9282 4.16044 13.0952 4.44526 13.317 4.68469C13.5388 4.92413 13.81 5.11246 14.1118 5.23661C14.4136 5.36076 14.7388 5.41777 15.0649 5.40368C15.3909 5.38959 15.71 5.30473 16 5.155L17.2825 4.51375L18.52 5.75125L17.845 7C17.7013 7.2885 17.6212 7.60452 17.6102 7.92665C17.5992 8.24879 17.6576 8.56952 17.7813 8.86715C17.9051 9.16477 18.0913 9.43233 18.3274 9.65172C18.5636 9.87111 18.8441 10.0372 19.15 10.1388L20.5 10.5888V12.3775ZM11.5 7C10.61 7 9.73996 7.26392 8.99994 7.75839C8.25992 8.25286 7.68314 8.95566 7.34255 9.77793C7.00195 10.6002 6.91284 11.505 7.08647 12.3779C7.2601 13.2508 7.68869 14.0526 8.31802 14.682C8.94736 15.3113 9.74918 15.7399 10.6221 15.9135C11.495 16.0872 12.3998 15.9981 13.2221 15.6575C14.0443 15.3169 14.7471 14.7401 15.2416 14.0001C15.7361 13.26 16 12.39 16 11.5C16 10.3065 15.5259 9.16194 14.682 8.31802C13.8381 7.47411 12.6935 7 11.5 7ZM11.5 13.75C11.055 13.75 10.62 13.618 10.25 13.3708C9.87996 13.1236 9.59157 12.7722 9.42127 12.361C9.25098 11.9499 9.20642 11.4975 9.29324 11.0611C9.38005 10.6246 9.59435 10.2237 9.90901 9.90901C10.2237 9.59435 10.6246 9.38005 11.0611 9.29324C11.4975 9.20642 11.9499 9.25098 12.361 9.42127C12.7722 9.59157 13.1236 9.87996 13.3708 10.25C13.618 10.62 13.75 11.055 13.75 11.5C13.75 12.0967 13.5129 12.669 13.091 13.091C12.669 13.5129 12.0967 13.75 11.5 13.75Z" fill="#5C5C5C"/>
</svg>
