<svg width="17" height="17" viewBox="0 0 17 17" fill="none" xmlns="http://www.w3.org/2000/svg">
<path d="M14.7617 3.26543C14.3999 2.90347 13.9703 2.61634 13.4976 2.42045C13.0248 2.22455 12.518 2.12372 12.0063 2.12372C11.4945 2.12372 10.9878 2.22455 10.515 2.42045C10.0422 2.61634 9.61263 2.90347 9.25085 3.26543L8.50001 4.01626L7.74918 3.26543C7.0184 2.53465 6.02725 2.1241 4.99376 2.1241C3.96028 2.1241 2.96913 2.53465 2.23835 3.26543C1.50756 3.99621 1.09702 4.98736 1.09702 6.02084C1.09702 7.05433 1.50756 8.04548 2.23835 8.77626L2.98918 9.52709L8.50001 15.0379L14.0108 9.52709L14.7617 8.77626C15.1236 8.41448 15.4108 7.98492 15.6067 7.51214C15.8026 7.03935 15.9034 6.53261 15.9034 6.02084C15.9034 5.50908 15.8026 5.00233 15.6067 4.52955C15.4108 4.05677 15.1236 3.62721 14.7617 3.26543V3.26543Z" stroke="#EA0000" stroke-width="2" stroke-linecap="round" stroke-linejoin="round"/>
<path d="M15.9375 7.08333L8.85417 14.1667L3.89583 10.625L1.0625 5.3125L4.95833 2.125L8.14583 4.25L10.625 2.47917L14.5208 3.1875L15.9375 7.08333Z" fill="#EA0000" stroke="#EA0000"/>
</svg>
